<svg id="Layer_1" data-name="Layer 1" xmlns="http://www.w3.org/2000/svg" xmlns:xlink="http://www.w3.org/1999/xlink" viewBox="0 0 182 56"><defs><linearGradient id="linear-gradient-7" x1="28.18" y1="24.17" x2="24.53" y2="23.12" gradientTransform="matrix(1 0 0 -1 0 56)" gradientUnits="userSpaceOnUse"><stop offset=".2" stop-color="#02131f"/><stop offset=".9" stop-color="#02131f" stop-opacity="0"/></linearGradient><linearGradient id="linear-gradient-14" x1="50.17" y1="48.71" x2="38.44" y2="31.5" gradientTransform="matrix(1 0 0 -1 0 56)" gradientUnits="userSpaceOnUse"><stop offset=".7" stop-color="#27343c"/><stop offset=".7" stop-color="#2b373f"/><stop offset=".7" stop-color="#36424a"/><stop offset=".7" stop-color="#49545b"/><stop offset=".8" stop-color="#646d73" stop-opacity="0"/><stop offset=".8" stop-color="#868d92" stop-opacity="0"/><stop offset=".8" stop-color="#b0b5b8" stop-opacity="0"/><stop offset=".8" stop-color="#e1e3e4" stop-opacity="0"/><stop offset=".8" stop-color="#fff" stop-opacity="0"/></linearGradient><linearGradient id="linear-gradient-2" x1="8.62" y1="44.39" x2="47.72" y2="11.55" gradientTransform="matrix(1 0 0 -1 0 56)" gradientUnits="userSpaceOnUse"><stop offset="0" stop-color="#0b1f2a"/><stop offset=".2" stop-color="#333f47"/><stop offset=".5" stop-color="#777f84"/><stop offset=".5" stop-color="#81898d"/><stop offset=".7" stop-color="#b3b8b8"/><stop offset=".8" stop-color="#d2d5d3"/><stop offset=".8" stop-color="#dee0dd"/><stop offset="1" stop-color="#fbfbfb"/></linearGradient><linearGradient id="linear-gradient-3" x1="1951.98" y1="11.18" x2="1971.01" y2="-41.13" gradientTransform="matrix(-1 0 0 1 1989.67 43.01)" gradientUnits="userSpaceOnUse"><stop offset="0" stop-color="#e1e3e1"/><stop offset=".1" stop-color="#c1c5c4"/><stop offset=".3" stop-color="#9ba1a2"/><stop offset=".5" stop-color="#7d8487"/><stop offset=".7" stop-color="#687074" stop-opacity="0"/><stop offset=".8" stop-color="#5b6469" stop-opacity="0"/><stop offset="1" stop-color="#576065" stop-opacity="0"/></linearGradient><linearGradient id="linear-gradient-4" x1="16.2" y1="48.7" x2="40.18" y2="7.17" gradientTransform="matrix(1 0 0 -1 0 56)" xlink:href="#linear-gradient-3"/><linearGradient id="linear-gradient-5" x1="39.05" y1="21.51" x2="37.57" y2="19.08" gradientTransform="matrix(1 0 0 -1 0 56)" gradientUnits="userSpaceOnUse"><stop offset="0" stop-color="#27343c"/><stop offset="1" stop-color="#00111e" stop-opacity="0"/></linearGradient><linearGradient id="linear-gradient-6" x1="34.78" y1="30.44" x2="32.35" y2="34.36" gradientTransform="matrix(1 0 0 -1 0 56)" gradientUnits="userSpaceOnUse"><stop offset=".1" stop-color="#02131f"/><stop offset=".9" stop-color="#02131f" stop-opacity="0"/></linearGradient><linearGradient id="linear-gradient" x1="7.34" y1="45.4" x2="49.05" y2="10.47" gradientTransform="matrix(1 0 0 -1 0 56)" gradientUnits="userSpaceOnUse"><stop offset="0" stop-color="#fff"/><stop offset=".1" stop-color="#e7e8e6"/><stop offset=".1" stop-color="#cdd0d0"/><stop offset=".2" stop-color="#b5bbbd"/><stop offset=".2" stop-color="#a5acaf"/><stop offset=".3" stop-color="#9ba3a7"/><stop offset=".3" stop-color="#98a0a4"/><stop offset=".4" stop-color="#828a8f"/><stop offset=".5" stop-color="#667075"/><stop offset=".6" stop-color="#535c63"/><stop offset=".7" stop-color="#475158"/><stop offset=".8" stop-color="#434d54"/><stop offset="1" stop-color="#475157"/></linearGradient><linearGradient id="linear-gradient-8" x1="18.45" y1="19.33" x2="17.93" y2="20.63" gradientTransform="matrix(1 0 0 -1 0 56)" gradientUnits="userSpaceOnUse"><stop offset="0" stop-color="#02131f"/><stop offset=".1" stop-color="#02131f"/><stop offset="1" stop-color="#02131f" stop-opacity="0"/></linearGradient><linearGradient id="linear-gradient-9" x1="31.32" y1="40.78" x2="28.37" y2="40.44" gradientTransform="matrix(1 0 0 -1 0 56)" gradientUnits="userSpaceOnUse"><stop offset=".3" stop-color="#02131f"/><stop offset=".8" stop-color="#02131f" stop-opacity="0"/></linearGradient><linearGradient id="linear-gradient-10" x1="31.42" y1="40.83" x2="29.42" y2="40.57" gradientTransform="matrix(1 0 0 -1 0 56)" gradientUnits="userSpaceOnUse"><stop offset=".4" stop-color="#27343c"/><stop offset="1" stop-color="#3b474e" stop-opacity="0"/></linearGradient><linearGradient id="linear-gradient-11" x1=".07" y1="27.21" x2="24.32" y2="13.22" gradientTransform="matrix(1 0 0 -1 0 56)" gradientUnits="userSpaceOnUse"><stop offset="0" stop-color="#24303a" stop-opacity="0"/><stop offset="0" stop-color="#25323b" stop-opacity="0"/><stop offset=".1" stop-color="#27343c"/></linearGradient><linearGradient id="linear-gradient-12" x1="28.15" y1="23.24" x2="28.15" y2="27.41" gradientTransform="matrix(1 0 0 -1 0 56)" gradientUnits="userSpaceOnUse"><stop offset=".3" stop-color="#a5abaf"/><stop offset="1" stop-color="#a5abaf" stop-opacity="0"/></linearGradient><linearGradient id="linear-gradient-13" x1="41.79" y1="53.74" x2="41.79" y2=".74" gradientTransform="matrix(1 0 0 -1 0 56)" gradientUnits="userSpaceOnUse"><stop offset="0" stop-color="#dee0dd"/><stop offset="0" stop-color="#c5c9c7"/><stop offset="0" stop-color="#9ea4a5"/><stop offset="0" stop-color="#82898c"/><stop offset="0" stop-color="#71797d"/><stop offset="0" stop-color="#6b7378"/><stop offset=".2" stop-color="#333f47"/><stop offset=".5" stop-color="#27343c"/><stop offset=".8" stop-color="#333f47"/><stop offset="1" stop-color="#434d54"/></linearGradient><style>.cls-1{fill:#fff}.cls-6{fill:#565f64}.cls-8{fill:#a4aaae;fill-opacity:.6}</style></defs><path class="cls-1" d="M168.68 36.84a.5.5 0 00-.5-.5h-8.26a.5.5 0 00-.5.5v.71a.51.51 0 00.5.51h5.2c.35 0 .33.15.33.56v.09c0 .4 0 .49-.33.49h-10.59a.5.5 0 01-.5-.5v-3.07a.5.5 0 01.5-.5h13.64a.5.5 0 00.5-.5V33.5a.5.5 0 00-.5-.5h-16.78a.5.5 0 00-.5.5V41a.5.5 0 00.5.5h16.78a.5.5 0 00.5-.5v-4.25M141.67 38.9a1.21 1.21 0 01-.68.29h-2.13a1.21 1.21 0 01-.68-.29l-4.1-2.59c-.23-.15-.43 0-.43.23V41a.5.5 0 01-.5.5H131a.5.5 0 01-.5-.5v-7.5a.5.5 0 01.5-.5h2.29a1.18 1.18 0 01.68.27l5.59 3.62a.6.6 0 00.7 0l5.59-3.62a1.18 1.18 0 01.67-.27h2.29a.5.5 0 01.5.5V41a.5.5 0 01-.5.5h-2.14a.5.5 0 01-.5-.5v-4.46c0-.28-.19-.38-.43-.23l-4.08 2.58zM112 41.46h-2.77a.24.24 0 01-.2-.38l6-7.75a.77.77 0 01.55-.33h12.82a.58.58 0 01.56.63V41a.5.5 0 01-.5.5h-2.14a.5.5 0 01-.5-.5v-1.1c0-.3 0-.41-.33-.41h-11.27a.68.68 0 00-.5.33l-.89 1.18a1.14 1.14 0 01-.79.5zm5.56-6.33a.5.5 0 00-.36.22l-1.32 1.71c-.1.12 0 .22.11.22h9.54c.3 0 .33-.12.33-.41v-1.18c0-.41 0-.56-.33-.56zM106.59 41.46a1.14 1.14 0 00.79-.5l5.76-7.46c.21-.28.11-.5-.17-.5h-1.15a.77.77 0 00-.55.34l-6 7.75a.24.24 0 00.2.38zM103.19 41.46A1.14 1.14 0 00104 41l5.76-7.46c.21-.28.11-.5-.16-.5h-1.64a.77.77 0 00-.55.34l-6 7.75a.24.24 0 00.2.38zM97.23 41.46a.24.24 0 01-.2-.38l6-7.75a.77.77 0 01.55-.34H106c.28 0 .38.23.16.5L100.37 41a1.14 1.14 0 01-.79.5zM92.22 41.46a.24.24 0 01-.2-.38l6-7.75a.77.77 0 01.55-.34h3.2c.28 0 .38.23.17.5L96.16 41a1.14 1.14 0 01-.79.5zM83.6 41.46a.24.24 0 01-.2-.38l6-7.75a.77.77 0 01.55-.34h7c.28 0 .38.23.16.5L91.36 41a1.13 1.13 0 01-.79.5zM109 46.39h.72a4.9 4.9 0 01.71 0 1.38 1.38 0 01.91.53 2.1 2.1 0 010 2.42 1.36 1.36 0 01-1 .52 6.32 6.32 0 01-.73 0H109zm.55 3.07h.29a3.28 3.28 0 00.5 0 .84.84 0 00.61-.4 1.66 1.66 0 00.22-.88 1.53 1.53 0 00-.24-.88.87.87 0 00-.61-.38 3.93 3.93 0 00-.6 0h-.15zM112.46 46.39h.76a5.51 5.51 0 01.67 0 1.06 1.06 0 01.69.35 1 1 0 01.23.67 1 1 0 01-.68 1l.87 1.52h-.65l-.81-1.43H113v1.43h-.55zM113 48h.25a2.15 2.15 0 00.64-.07.49.49 0 00.27-.22.62.62 0 00.08-.32.49.49 0 00-.28-.49 1 1 0 00-.38-.08H113zM116.41 49.93h-.55v-3.54h.55zM117.12 46.39h.59l.92 2.92.92-2.92h.58l-1.23 3.56h-.57zM121.4 49.93h-.55v-3.54h.55zM122.61 46.39h.59l1.56 2.71v-2.71h.52v3.55h-.57l-1.58-2.7v2.7h-.52zM127.72 48.14h1.18v1.47a2.11 2.11 0 01-1.24.39 1.46 1.46 0 01-1.11-.44 1.5 1.5 0 01-.35-.59 2.6 2.6 0 01-.12-.81 1.94 1.94 0 01.48-1.41 1.5 1.5 0 011.73-.27 1.13 1.13 0 01.57 1h-.49a.7.7 0 00-.75-.65.8.8 0 00-.67.3 1.66 1.66 0 00-.3 1.05 1.64 1.64 0 00.31 1.06.85.85 0 00.7.3 1.43 1.43 0 00.77-.23v-.72h-.72zM131.64 46.39h.71a3.45 3.45 0 011 .1.87.87 0 01.5.41 1.17 1.17 0 01.14.58 1 1 0 01-.29.76 1.14 1.14 0 01-.74.29h-.78v1.38h-.55zm.55 1.69h.23a2.69 2.69 0 00.64-.05.47.47 0 00.29-.23.63.63 0 00.08-.32.53.53 0 00-.3-.54 2 2 0 00-.71-.09h-.23zM135.32 47.86h1.42v.47h-1.42v1.13h1.6v.47h-2.15v-3.54h2.1v.47h-1.55zM137.87 46.39h.76a5.5 5.5 0 01.67 0 1.06 1.06 0 01.69.35 1 1 0 01.23.67 1 1 0 01-.68 1l.87 1.52h-.65l-.76-1.42h-.55v1.43h-.55zm.55 1.64h.25a2.15 2.15 0 00.64-.07.49.49 0 00.27-.22.62.62 0 00.08-.32.49.49 0 00-.28-.49 1 1 0 00-.38-.08h-.57zM141.87 47.86h1.42v.47h-1.42v1.6h-.55v-3.54h2.1v.47h-1.55zM145.54 46.32a1.39 1.39 0 011.05.45 2.27 2.27 0 010 2.78 1.46 1.46 0 01-2.11 0 2 2 0 01-.48-1.42 2.5 2.5 0 01.13-.78 1.47 1.47 0 01.63-.82 1.43 1.43 0 01.78-.21zm0 .47a.78.78 0 00-.68.34 1.7 1.7 0 00-.28 1 1.78 1.78 0 00.28 1 .84.84 0 001.35 0 1.74 1.74 0 00.28-1 1.71 1.71 0 00-.28-1 .79.79 0 00-.67-.33zM148 46.39h.76a5.5 5.5 0 01.67 0 1.06 1.06 0 01.69.35 1 1 0 01.23.67 1 1 0 01-.68 1l.87 1.52h-.65l-.81-1.43h-.55v1.43H148zm.55 1.64h.25a2.15 2.15 0 00.64-.07.49.49 0 00.27-.22.62.62 0 00.08-.32.49.49 0 00-.28-.49 1 1 0 00-.38-.08h-.57zM151.46 46.39h.79l.88 3 .88-3h.78v3.55h-.5V47l-.88 2.94h-.56L152 47v2.94h-.5zM156.79 46.38h.53l1.21 3.56H158l-.26-.83h-1.29l-.27.83h-.56zm.77 2.25l-.5-1.59-.5 1.59zM159.33 46.39h.59l1.56 2.71v-2.71h.52v3.55h-.57l-1.58-2.7v2.7h-.52zM165.63 47.46h-.49a.7.7 0 00-.73-.66.78.78 0 00-.67.35 1.74 1.74 0 00-.27 1 1.71 1.71 0 00.28 1 .78.78 0 00.66.33q.68 0 .76-.85h.5a1.74 1.74 0 01-.21.78 1.11 1.11 0 01-1 .55 1.41 1.41 0 01-1.05-.43 2.28 2.28 0 01.06-2.88 1.39 1.39 0 011-.37 1.31 1.31 0 01.64.16 1.15 1.15 0 01.52 1.02zM167.08 47.86h1.42v.47h-1.42v1.13h1.6v.47h-2.15v-3.54h2.1v.47h-1.55z"/><path id="outer" d="M55.39 28.06A27.2 27.2 0 1128.19.87a27.18 27.18 0 0127.2 27.19zM28.19 2.52a25.55 25.55 0 1025.55 25.54A25.48 25.48 0 0028.19 2.52z" fill="url(#linear-gradient)"/><path d="M28.19 2.52a25.55 25.55 0 1025.55 25.54A25.48 25.48 0 0028.19 2.52zm0 49.44a23.9 23.9 0 1123.9-23.9A23.88 23.88 0 0128.19 52z" fill="url(#linear-gradient-2)"/><path d="M28.19 55.26A27.2 27.2 0 101 28.06a27.18 27.18 0 0027.2 27.2zm0-55a27.81 27.81 0 11-27.8 27.8A27.89 27.89 0 0128.19.26z" style="isolation:isolate" fill="url(#linear-gradient-3)" opacity=".4"/><path class="cls-1" d="M2.3 28.15a26 26 0 0125.89-26 25.92 25.92 0 0125.89 26A25.83 25.83 0 0128.19 54 25.83 25.83 0 012.3 28.15zm8.08-17.9a25.3 25.3 0 00-7.47 17.9A25.23 25.23 0 0010.29 46a25.59 25.59 0 0017.9 7.39A24.87 24.87 0 0046 46a24.87 24.87 0 007.39-17.81A25.59 25.59 0 0046 10.25a24.94 24.94 0 00-17.81-7.47 24.94 24.94 0 00-17.81 7.47z"/><path d="M28.19 52a24 24 0 01-16.94-40.88A24 24 0 1145.14 45a23.79 23.79 0 01-16.94 7zm0-.7a23.2 23.2 0 10-16.42-39.57 22.59 22.59 0 00-6.86 16.33 23.29 23.29 0 0023.28 23.29z" style="isolation:isolate" fill="url(#linear-gradient-4)" opacity=".4"/><path class="cls-1" d="M49.31 39.36L32.1 25.72 28.19 3.39a1.48 1.48 0 00-.78.7l-2.78 21.72L7.34 39.1s-.35.43-.52.7a1.69 1.69 0 00-.09.7l21.38-8.78 21.38 8.78a1.24 1.24 0 00-.18-1.14z"/><path class="cls-6" d="M28.37 28.76l-.17 4 19.64 7.91a1.56 1.56 0 001.74-.17L28.63 28.67a.17.17 0 00-.26.09z"/><path d="M28.37 28.76a20.76 20.76 0 002.43 3.39 20.07 20.07 0 004.26 3.39l12.77 5.13a1.56 1.56 0 001.74-.17L28.63 28.67a.17.17 0 00-.26.09z" fill="url(#linear-gradient-5)"/><path class="cls-8" d="M49.48 39.71c0-.09-.09-.17-.17-.35l-17.9-13.12L29 27.8s.17.09.26 0a2.17 2.17 0 011.3 0c.43.17 18.94 12 18.94 12z"/><path d="M48.87 38.93L32.19 25.72l-.78.52 17.9 13.21a2.3 2.3 0 00-.44-.52z" fill="#333e46"/><path class="cls-6" d="M28.63 27.46l-.09.09s0 .17.17.09 2.61-1.39 3.48-1.91l-3-20.85a1.51 1.51 0 00-1-1.39l.35 24.16z"/><path class="cls-8" d="M27.15 4.86V6l-1.91 19.2a.79.79 0 00.35.7l1.13.87.78-21.2.09-1.65a1.41 1.41 0 00-.44.94zM26.11 27.11l-1-.87L7.43 39s-.52.35-.61.7l.61-.35 18.5-11.63c.35-.18.44-.35.18-.61z"/><path class="cls-6" d="M27.93 28.76c0-.09-.09-.17-.17-.09l-21 11.9a1.75 1.75 0 001.74.17l19.64-7.91z"/><path d="M28.54 27.54l.09-.09-.09.09a.09.09 0 00.09.09h.09c.09-.09 2.61-1.39 3.48-1.91l-.35-2.52-2.7-18.34a1.06 1.06 0 00-.26-.78s1.3 17.55 1.3 19.46a5.67 5.67 0 01-1.65 4z" fill="url(#linear-gradient-6)"/><path d="M27.93 28.76c0-.09-.09-.17-.17-.09l-21 11.9a1.75 1.75 0 001.74.17l19.64-7.91z" fill-opacity=".8" fill="url(#linear-gradient-7)"/><path d="M8.47 40.66l19.64-7.91-.17-3.82a5 5 0 01-2.61 3c-1.22.7-12.86 6.43-17 8.43a5.49 5.49 0 01-.78.35 1 1 0 00.92-.05z" style="isolation:isolate" opacity=".8" fill="url(#linear-gradient-8)"/><path d="M28.63 27.46l-.09.09s0 .17.17.09 2.61-1.39 3.48-1.91l-3-20.85a1.51 1.51 0 00-1-1.39l.35 24.16z" fill="url(#linear-gradient-9)"/><path d="M28.63 27.46l-.09.09s0 .17.17.09 2.61-1.39 3.48-1.91l-3-20.85a1.51 1.51 0 00-1-1.39l.35 24.16z" fill="url(#linear-gradient-10)"/><path d="M4.82 38.84c-.61-1.39-4.08-8.17-.26-21.2H3.08a43 43 0 00-1.74 6.52S1.17 25 1.08 26A19.77 19.77 0 001 28.06a22.75 22.75 0 001.3 8.26 25.37 25.37 0 007.12 11.21 24.93 24.93 0 0010.95 5.13c-.61-.09-11.03-4.52-15.55-13.82z" fill="url(#linear-gradient-11)"/><path d="M28.54 28.59h-.78c.09 0 .17 0 .17.09l.17 4h.09l.17-4c0-.09.09-.17.17-.09z" fill="url(#linear-gradient-12)"/><path d="M36.88 2.26c9.12 3.48 17.73 13 17.73 25.11a26.37 26.37 0 01-26.42 26.5v1.39a27.22 27.22 0 008.69-53z" fill="url(#linear-gradient-13)"/><path d="M51.48 17.81A24.73 24.73 0 0030.89 3h-.09c10.51 1.91 17.21 8.78 19.55 16A27.28 27.28 0 0152 28a23.76 23.76 0 01-1.91 9.56c-.09.43-.17 1-.26 1h1.39c4.17-7.89 2.35-15.8.26-20.75z" fill="url(#linear-gradient-14)"/><path d="M2.3 28.15a26 26 0 0125.89-26 25.92 25.92 0 0125.89 26A25.83 25.83 0 0128.19 54 25.83 25.83 0 012.3 28.15zm8.08-17.9a25.3 25.3 0 00-7.47 17.9A25.23 25.23 0 0010.29 46a25.59 25.59 0 0017.9 7.39A24.87 24.87 0 0046 46a24.87 24.87 0 007.39-17.81A25.59 25.59 0 0046 10.25a24.94 24.94 0 00-17.81-7.47 24.94 24.94 0 00-17.81 7.47z" fill="#fbfbfb"/><path d="M7.25 39.19L25 26.41a18 18 0 002.69 1.22c.17.09.17-.09.17-.09l-2.17-1.82a.79.79 0 01-.35-.7l2.07-20.94c-.09.09-.09.26-.17.35a.78.78 0 00-.09.43l-3 20.94L7.43 38.93c-.09.07-.18.17-.18.26z" fill="#333f47"/><path fill="none" stroke="#fff" stroke-miterlimit="10" stroke-width=".25" d="M181 33v17"/></svg>